<svg width="133" height="133" viewBox="0 0 133 133" fill="none" xmlns="http://www.w3.org/2000/svg">
<path d="M91.4375 49.875C91.4375 56.4888 88.8102 62.8318 84.1335 67.5085C79.4568 72.1852 73.1138 74.8125 66.5 74.8125C59.8862 74.8125 53.5432 72.1852 48.8665 67.5085C44.1898 62.8318 41.5625 56.4888 41.5625 49.875C41.5625 43.2612 44.1898 36.9182 48.8665 32.2415C53.5432 27.5648 59.8862 24.9375 66.5 24.9375C73.1138 24.9375 79.4568 27.5648 84.1335 32.2415C88.8102 36.9182 91.4375 43.2612 91.4375 49.875Z" fill="#D9D9D9"/>
<path fill-rule="evenodd" clip-rule="evenodd" d="M0 66.5C0 48.8631 7.00623 31.9486 19.4774 19.4774C31.9486 7.00623 48.8631 0 66.5 0C84.1369 0 101.051 7.00623 113.523 19.4774C125.994 31.9486 133 48.8631 133 66.5C133 84.1369 125.994 101.051 113.523 113.523C101.051 125.994 84.1369 133 66.5 133C48.8631 133 31.9486 125.994 19.4774 113.523C7.00623 101.051 0 84.1369 0 66.5ZM66.5 8.3125C55.5423 8.31308 44.8074 11.4078 35.531 17.2404C26.2545 23.0729 18.8135 31.4064 14.0645 41.2815C9.31537 51.1566 7.45121 62.172 8.68655 73.0599C9.92189 83.9477 14.2065 94.2655 21.0473 102.826C26.9491 93.3161 39.9416 83.125 66.5 83.125C93.0584 83.125 106.043 93.3078 111.953 102.826C118.794 94.2655 123.078 83.9477 124.313 73.0599C125.549 62.172 123.685 51.1566 118.936 41.2815C114.186 31.4064 106.745 23.0729 97.469 17.2404C88.1926 11.4078 77.4577 8.31308 66.5 8.3125Z" fill="#D9D9D9"/>
</svg>
